<svg fill-opacity="0.1"
   xmlns="http://www.w3.org/2000/svg"
   x="0px"
   y="0px"
   viewBox="0 0 713.57599 800"
   width="713.57599"
   height="800">
   <path d="M 713.02137,678.91392 V 541.0052 l -0.36972,-0.36973 -122.0104,-141.14385 h 122.0104 V 253.8186 H 480.46216 L 573.91103,145.67302 H 712.65165 V 0 H 452.3628 L 353.55286,114.43096 257.88562,0 H 0 V 145.67302 H 133.74928 L 227.19815,253.8186 H 0 V 399.49162 H 122.0104 L 1.571346,538.78683 H 0 V 678.91392 703.8706 800 h 93.171577 v -95.85211 l 61.559793,0.18487 v 95.57481 h 93.17158 v -95.29752 l 61.55979,0.18487 v 95.11265 h 93.17158 v -94.74293 l 61.55979,0.18487 V 800 h 93.17157 v -94.37319 l 60.17331,0.18486 V 800 h 96.03698 l -0.64703,-93.91103 h 0.0924 v -2.21837 l 0.5546,-24.95668 z M 219.61872,539.52629 354.47718,390.24841 493.77239,540.35817 Z"/>
   <path d="M 493.77239,540.35817"/>
</svg>