<svg
   xmlns="http://www.w3.org/2000/svg"
   x="0px"
   y="0px"
   viewBox="0 0 511.48495 800"
   width="511.48495"
   height="800">
<g transform="matrix(0.83073728,0,0,0.83073728,-159.50156,-14.953271)">
	<circle cx="499.79999" cy="387.39999" r="86.800003"/>
	<path d="M 618.2,18 H 381.4 L 192,324.3 354.6,981 H 645.1 L 807.7,324.3 Z M 697,562.8 660.2,599.6 560.6,500 c -11,5.9 -22.9,10.3 -35.5,12.8 V 903.7 H 473 V 512.4 c -12.1,-2.6 -23.6,-6.9 -34.2,-12.7 L 339,599.6 302.2,562.8 399,466 C 387,450.7 378.5,432.5 374.5,412.7 H 274.1 v -52.1 h 100.7 c 10.5,-49.1 49.1,-87.7 98.2,-98.2 v -42 C 415.3,208.1 372,156.8 372,95.4 h 41 c 0,48 38.9,86.8 86.8,86.8 47.9,0 86.8,-38.9 86.8,-86.8 h 41 c 0,62 -44.1,113.6 -102.6,125.4 V 262 c 49.8,10 89.2,48.9 99.8,98.5 h 105.5 v 52.1 H 625.2 c -4,19.9 -12.6,38.2 -24.7,53.6 z"/>
</g>
</svg>