<svg fill-opacity="0.1"
   xmlns="http://www.w3.org/2000/svg"
   x="0px"
   y="0px"
   viewBox="0 0 574.63928 800"
   width="574.63928"
   height="800">
<g 
   id="g6"
   transform="matrix(0.81199887,0,0,0.81199887,-119.84291,-4.6933535)">
	<path
   d="M 855.21,753.22 782.29,450.5 c -0.54,-2.26 -3.7,-2.43 -4.48,-0.24 l -75.49,211.37 c -0.64,1.8 -3.06,2.11 -4.14,0.53 L 626.9,557.32 c -1.22,-1.79 -4.01,-1.11 -4.26,1.04 l -21.18,180.05 c -0.27,2.26 -3.27,2.85 -4.37,0.86 L 495.94,556.34 c -0.94,-1.71 -3.44,-1.58 -4.2,0.22 l -67.01,157.79 c -0.73,1.71 -3.06,1.93 -4.09,0.39 l -66.03,-97.98 c -0.98,-1.45 -3.14,-1.36 -3.99,0.17 l -29.47,53.04 c -1.02,1.84 -3.77,1.5 -4.31,-0.54 L 246.26,401.64 c -1.39,-5.28 -8.92,-5.19 -10.18,0.12 L 154.8,744.05 c -0.23,0.96 0.17,1.95 0.99,2.5 l 370.63,244.07 c 0.81,0.53 1.87,0.51 2.66,-0.06 L 854.31,755.67 c 0.77,-0.56 1.12,-1.53 0.9,-2.45 z"
   id="path2"
   />
	<path
   d="m 327.43,577.18 34.15,-34.15 56.91,109.27 61.47,-157.08 95.61,138.87 25.04,-122.93 59.19,27.32 15.94,-195.78 167.3,-4.35 c 4,-0.1 6.78,-4.01 5.58,-7.83 L 794.12,158.3 689.4,160.58 655.25,74.07 352.47,5.78 320.6,103.67 165.8,140.09 147.59,263.02 320.6,379.12 Z M 569.97,274.1 659.8,212.94 c 22.88,15.77 36.54,44.6 40.98,77.4 l -127.21,-4.55 c -6.3,0 -8.81,-8.14 -3.6,-11.69 z m -12.61,125.51 -75.12,9.11 22.76,-77.4 z M 416.22,176.52 c 42.75,0 77.4,34.65 77.4,77.4 0,42.75 -34.65,77.4 -77.4,77.4 -42.75,0 -77.4,-34.65 -77.4,-77.4 0,-42.75 34.65,-77.4 77.4,-77.4 z"
   id="path4"
   />
</g>
</svg>