<svg fill-opacity="0.1"
   xmlns="http://www.w3.org/2000/svg"
   x="0px"
   y="0px"
   viewBox="0 0 800 800"
   width="800"
   height="800">
<g transform="matrix(0.85947572,0,0,0.85947572,-31.113021,-30.08165)">
	<path d="m 501.6,35 c -257,0 -465.4,208.4 -465.4,465.4 0,257 208.4,465.4 465.4,465.4 C 758.6,965.8 967,757.4 967,500.4 967,243.4 758.6,35 501.6,35 Z m 0,903.7 C 259.5,938.7 63.3,742.5 63.3,500.4 63.3,258.3 259.6,62.1 501.6,62.1 c 242,0 438.3,196.2 438.3,438.3 0,242.1 -196.2,438.3 -438.3,438.3 z"/>
	<path d="m 309.1,254.7 c 0,-64.1 31.2,-120.8 79.2,-156 C 213.6,148.3 85.7,309 85.7,499.6 c 0,225.9 179.7,409.7 403.9,416.6 V 447.6 C 388.8,440.9 309.1,357.1 309.1,254.7 Z"/>
	<path d="m 616.6,98.6 c 48,35.2 79.2,92 79.2,156 0,102.4 -79.7,186.3 -180.5,192.9 V 916 C 739.5,909.2 919.2,725.3 919.2,499.4 919.2,309 791.3,148.3 616.6,98.6 Z"/>
	<circle cx="502.39999" cy="254.7" r="171.89999"/>
</g>
</svg>