<svg
   xmlns="http://www.w3.org/2000/svg"
   x="0px"
   y="0px"
   viewBox="0 0 746.91741 799.99999"
   width="746.91742"
   height="800">
<g
   transform="matrix(0.8842828,0,0,0.8842828,0.03550375,-0.01066211)">
	<circle
   cx="449.60001"
   cy="712.70001"
   r="192"/>
	<path d="m 229.6,673.7 c 23,-122 98,-153 189.9,-179 0,0 -60.9,-15 -71.9,-71 -11,-56 86.4,-87.9 102,-163 10,-48 -20,-47 -15,-103 5,-56 88,-35 88,-35 0,0 121,26 156,-104 0,0 -52,98 -259.1,-10 -61.8,-32.2 -147.9,33 -161.9,67 -14,34 7.4,85.8 -7,141 -24,92 -129,52 -210,165 -81,113 -24,306 25,368 49,62 200.9,139.5 245,140 6,0.1 -107.4,-75.7 -81,-216 z"/>
	<path d="m 842.6,571.7 c -56,95 -185,49 -185,49 48,188 -70,262 -70,262 296.8,-45 255,-311 255,-311 z"/>
</g>
</svg>